<?xml version="1.0" encoding="UTF-8"?>
<svg width="38px" height="39px" viewBox="0 0 38 39" version="1.1" xmlns="http://www.w3.org/2000/svg" xmlns:xlink="http://www.w3.org/1999/xlink">
    <!-- Generator: Sketch 63.1 (92452) - https://sketch.com -->
    <title>密码</title>
    <desc>Created with Sketch.</desc>
    <g id="移动端" stroke="none" stroke-width="1" fill="none" fill-rule="evenodd">
        <g id="公众号1-灰色icon备份" transform="translate(-142.000000, -827.000000)">
            <g id="编组-6" transform="translate(142.000000, 827.000000)">
                <g id="密码" transform="translate(0.000000, 1.000000)">
                    <g id="编组-4" fill="#999999">
                        <circle id="椭圆形" cx="19" cy="18.4411765" r="19"></circle>
                    </g>
                    <g id="编组-5" transform="translate(11.176471, 8.941176)" fill="#FFFFFF" fill-rule="nonzero">
                        <path d="M12.9810289,18.4411765 L2.66482452,18.4411765 C1.19517886,18.4411765 0,17.2726206 0,15.8333214 L0,9.87253989 C0,8.43326172 1.19517886,7.26470588 2.66482452,7.26470588 L12.9810289,7.26470588 C14.4518595,7.26470588 15.6470588,8.43326172 15.6470588,9.87253989 L15.6470588,15.8333214 C15.6470588,17.2726417 14.4518595,18.4411765 12.9810289,18.4411765 L12.9810289,18.4411765 Z M2.66482452,8.50653361 C1.85962795,8.50653361 1.20361677,9.11884709 1.20361677,9.87256096 L1.20361677,15.8333425 C1.20361677,16.5871617 1.85962795,17.1993698 2.66482452,17.1993698 L12.9810289,17.1993698 C13.7875126,17.1993698 14.4434216,16.5871617 14.4434216,15.8333425 L14.4434216,9.87253989 C14.4434216,9.11882601 13.7875126,8.50653361 12.9810289,8.50653361 L2.66482452,8.50653361 L2.66482452,8.50653361 Z" id="形状"></path>
                        <path d="M11.655504,8.38235294 C11.3029808,8.38235294 11.0168253,8.09621986 11.0168253,7.74374084 L11.0168253,3.91180807 C11.0168253,2.15166789 9.58494224,0.718465713 7.82358362,0.718465713 C6.06341749,0.718465713 4.63027688,2.15166789 4.63027688,3.91180807 L4.63027688,7.74374084 C4.63027688,8.09621986 4.34412142,8.38235294 3.99164155,8.38235294 C3.63907495,8.38235294 3.35294118,8.09621986 3.35294118,7.74374084 L3.35294118,3.91180807 C3.35294118,1.44651473 5.35830598,-0.558823529 7.82358362,-0.558823529 C10.2887745,-0.558823529 12.2941176,1.44653641 12.2941176,3.91180807 L12.2941176,7.74374084 C12.2941176,8.09619818 12.0080056,8.38235294 11.655504,8.38235294 L11.655504,8.38235294 Z" id="路径"></path>
                    </g>
                </g>
            </g>
        </g>
    </g>
</svg>