<?xml version="1.0" encoding="UTF-8"?>
<svg width="38px" height="38px" viewBox="0 0 38 38" version="1.1" xmlns="http://www.w3.org/2000/svg" xmlns:xlink="http://www.w3.org/1999/xlink">
    <!-- Generator: Sketch 63.1 (92452) - https://sketch.com -->
    <title>账号</title>
    <desc>Created with Sketch.</desc>
    <g id="移动端" stroke="none" stroke-width="1" fill="none" fill-rule="evenodd">
        <g id="公众号1-灰色icon备份" transform="translate(-142.000000, -730.000000)">
            <g id="编组-7" transform="translate(142.000000, 730.000000)">
                <g id="账号">
                    <circle id="椭圆形" fill="#999999" cx="19" cy="19" r="19"></circle>
                    <g id="编组-3" transform="translate(10.058824, 8.941176)" fill="#FFFFFF" fill-rule="nonzero">
                        <path d="M9.48487057,13.1068644 C8.60685229,13.1068644 7.75667815,12.9327801 6.95476716,12.592099 C6.18070031,12.2626491 5.48645329,11.7890649 4.88873261,11.1881932 C4.29101192,10.5873215 3.82323051,9.88536862 3.49652603,9.10479701 C3.15682763,8.29614727 2.98605028,7.43882881 2.98605028,6.55343222 C2.98605028,5.66803564 3.1586839,4.81071717 3.49652603,4.00206744 C3.82323049,3.22149583 4.29286819,2.5214148 4.88873261,1.91867125 C5.48459702,1.3159277 6.18070031,0.844215358 6.95476716,0.514765456 C7.75667815,0.172212447 8.60685229,-1.616634e-14 9.48487057,-1.616634e-14 C10.3628889,-1.616634e-14 11.213063,0.174084314 12.014974,0.514765456 C12.7890408,0.844215339 13.4832879,1.31779957 14.0810085,1.91867125 C14.6787292,2.51954293 15.1465106,3.22149583 15.4732151,4.00206744 C15.8129135,4.81071717 15.9836909,5.66803564 15.9836909,6.55343222 C15.9836909,7.43882881 15.8110572,8.29614727 15.4732151,9.10479701 C15.1465106,9.88536862 14.676873,10.5854497 14.0810085,11.1881932 C13.4851441,11.7909367 12.7890408,12.2626491 12.014974,12.592099 C11.213063,12.9327801 10.3628889,13.1068644 9.48487057,13.1068644 Z M9.48487057,1.19612772 C6.55752422,1.19612772 4.17406656,3.59961444 4.17406656,6.55343222 C4.17406656,9.50725001 6.55752422,11.9088648 9.48487057,11.9088648 C12.4140732,11.9088648 14.7956746,9.50537812 14.7956746,6.55343222 C14.7956746,3.60148633 12.4140732,1.19612772 9.48487057,1.19612772 Z" id="形状"></path>
                        <path d="M0.595167528,19.6322186 C0.532054168,19.6322186 0.468940807,19.6228592 0.405827428,19.6003967 C0.0939731622,19.4955717 -0.0730916264,19.1548906 0.0308598018,18.8422876 C0.359420556,17.8558098 0.836483343,16.9311038 1.44905423,16.0906322 C2.05420002,15.25952 2.78000371,14.529489 3.60604628,13.9211298 C5.32124477,12.6557427 7.35386637,11.9874836 9.48487057,11.9874836 C11.6158748,11.9874836 13.6484964,12.6557427 15.3636949,13.9211298 C16.1897374,14.529489 16.9136849,15.25952 17.5206869,16.0906322 C18.1332578,16.9311038 18.6103206,17.8576816 18.9388813,18.8422876 C19.0428328,19.1567625 18.875768,19.4955717 18.5639137,19.6003967 C18.2520595,19.7052216 17.9160736,19.536753 17.8121222,19.2222781 C16.611112,15.6114324 13.2661036,13.1854832 9.48487057,13.1854832 C5.70549379,13.1854832 2.3586292,15.6114324 1.15761899,19.2241499 C1.07408658,19.4731092 0.843908434,19.6322186 0.595167528,19.6322186 Z" id="路径"></path>
                    </g>
                </g>
            </g>
        </g>
    </g>
</svg>